<?xml version="1.0" encoding="iso-8859-1"?>
<!-- Generator: Adobe Illustrator 19.0.0, SVG Export Plug-In . SVG Version: 6.00 Build 0)  -->
<svg version="1.1" id="Layer_1" xmlns="http://www.w3.org/2000/svg" xmlns:xlink="http://www.w3.org/1999/xlink" x="0px" y="0px"
	 viewBox="0 0 511.67 511.67" style="enable-background:new 0 0 511.67 511.67;" xml:space="preserve">
<path style="fill:#434A54;" d="M21.314,277.162c0,5.887-4.763,10.665-10.665,10.665C4.762,287.827,0,283.049,0,277.162
	c0-5.895,4.763-10.673,10.649-10.673C16.551,266.489,21.314,271.268,21.314,277.162z"/>
<path style="fill:#656D78;" d="M82.024,192.006c-4.153-4.154-4.153-10.915,0-15.068l-15.068-15.069
	c-12.492,12.492-12.492,32.729,0,45.221l30.152,30.152l15.069-15.068L82.024,192.006z"/>
<path style="fill:#AAB2BC;" d="M64.067,201.203c-1.952,0.171-3.919,0.421-5.872,0.765c-35.149,6.184-58.603,39.693-52.419,74.851
	c6.199,35.149,39.709,58.604,74.858,52.404c1.92-0.328,3.794-0.766,5.653-1.266l425.383-96.602l-14.959-84.852L64.067,201.203z"/>
<g style="opacity:0.2;">
	<path style="fill:#FFFFFF;" d="M62.193,223.282c1.952-0.343,3.919-0.593,5.871-0.765l432.411-54.653l-3.764-21.361l-432.645,54.7
		c-1.952,0.171-3.919,0.421-5.872,0.765c-35.149,6.184-58.603,39.693-52.419,74.851c0.687,3.889,1.702,7.62,3.029,11.196
		C8.244,256.761,30.448,228.888,62.193,223.282z"/>
</g>
<path style="fill:#7F4545;" d="M351.789,362.436H53.293v-21.314C42.644,232.855,351.789,245.16,351.789,245.16V362.436z"/>
<g>
	<path style="fill:#A85D5D;" d="M138.582,362.436c0,29.45-23.86,53.31-53.294,53.31c-29.45,0-53.31-23.859-53.31-53.31
		c0-29.419,23.86-53.294,53.31-53.294C114.722,309.142,138.582,333.017,138.582,362.436z"/>
	<path style="fill:#A85D5D;" d="M362.454,362.436c0,29.45-23.859,53.31-53.31,53.31c-29.435,0-53.294-23.859-53.294-53.31
		c0-29.419,23.859-53.294,53.294-53.294C338.595,309.142,362.454,333.017,362.454,362.436z"/>
</g>
<g>
	<path style="fill:#434A54;" d="M95.938,362.436c0,5.902-4.778,10.681-10.649,10.681c-5.902,0-10.665-4.778-10.665-10.681
		c0-5.871,4.763-10.649,10.665-10.649C91.159,351.786,95.938,356.564,95.938,362.436z"/>
	<path style="fill:#434A54;" d="M319.81,362.436c0,5.902-4.762,10.681-10.665,10.681c-5.871,0-10.649-4.778-10.649-10.681
		c0-5.871,4.778-10.649,10.649-10.649C315.048,351.786,319.81,356.564,319.81,362.436z"/>
</g>
<g>
	<path style="fill:#FFCE54;" d="M82.149,99.05c-4.169-4.169-10.915-4.169-15.084,0c-2.077,2.076-3.123,4.809-3.123,7.542h-0.016
		v21.314h0.016c0,2.732,1.046,5.449,3.123,7.542c4.169,4.153,10.915,4.153,15.084,0c2.186-2.187,3.217-5.091,3.092-7.964v-20.487
		C85.366,104.14,84.335,101.235,82.149,99.05z"/>
	<path style="fill:#FFCE54;" d="M49.764,120.083l-14.491-14.491c-1.952-2.092-4.715-3.435-7.807-3.435
		c-5.887,0-10.665,4.778-10.665,10.681c0,2.936,1.202,5.59,3.123,7.526l-0.016,0.016l15.084,15.068h0.016
		c1.92,1.92,4.591,3.123,7.526,3.123c5.887,0,10.665-4.778,10.665-10.665C53.199,124.799,51.872,122.02,49.764,120.083z"/>
	<path style="fill:#FFCE54;" d="M132.461,112.838c0-5.887-4.778-10.649-10.665-10.649c-3.092,0-5.871,1.312-7.808,3.419
		l-14.491,14.491c-2.108,1.952-3.435,4.731-3.435,7.823c0,5.887,4.778,10.649,10.665,10.649c2.936,0,5.605-1.187,7.526-3.123
		l0.016,0.031l15.084-15.084l-0.016-0.016C131.259,118.459,132.461,115.773,132.461,112.838z"/>
	<path style="fill:#FFCE54;" d="M66.784,161.682c-4.169,4.169-4.169,10.93,0,15.084c4.154,4.153,10.915,4.153,15.068,0
		c4.169-4.154,4.169-10.915,0-15.084C77.699,157.527,70.938,157.527,66.784,161.682z"/>
</g>
<g>
</g>
<g>
</g>
<g>
</g>
<g>
</g>
<g>
</g>
<g>
</g>
<g>
</g>
<g>
</g>
<g>
</g>
<g>
</g>
<g>
</g>
<g>
</g>
<g>
</g>
<g>
</g>
<g>
</g>
</svg>
