<?xml version="1.0" encoding="iso-8859-1"?>
<!-- Generator: Adobe Illustrator 19.0.0, SVG Export Plug-In . SVG Version: 6.00 Build 0)  -->
<svg version="1.1" id="Layer_1" xmlns="http://www.w3.org/2000/svg" xmlns:xlink="http://www.w3.org/1999/xlink" x="0px" y="0px"
	 viewBox="0 0 511.672 511.672" style="enable-background:new 0 0 511.672 511.672;" xml:space="preserve">
<path style="fill:#434A54;" d="M270.481,71.485c105.87,40.958,203.808,0,203.808,0l-48.173,152.293l48.173,151.513
	c0,0-97.938,40.942-203.808,0c-105.854-40.975-201.137,0-201.137,0V71.485C69.345,71.485,164.628,30.512,270.481,71.485z"/>
<g style="opacity:0.1;">
	<path style="fill:#FFFFFF;" d="M474.289,71.485c0,0-8.714,3.638-23.751,7.651l-45.736,144.642l48.173,151.513
		c0,0-38.46,16.067-93.206,18.004c65.817,2.357,114.521-18.004,114.521-18.004l-48.173-151.513L474.289,71.485z"/>
</g>
<path style="fill:#A85D5D;" d="M58.695,0C46.922,0,37.381,9.541,37.381,21.299v490.373H80.01V21.299C80.01,9.541,70.469,0,58.695,0z
	"/>
<path style="fill:#AAB2BC;" d="M349.26,288.112v-0.016l-191.815-53.278l0,0c-0.905-0.25-1.857-0.391-2.842-0.391
	c-5.887,0-10.665,4.763-10.665,10.665c0,4.888,3.311,8.994,7.808,10.243v0.016l191.814,53.294v-0.016
	c0.906,0.25,1.859,0.391,2.843,0.391c5.887,0,10.665-4.778,10.665-10.649C357.067,293.468,353.757,289.346,349.26,288.112z"/>
<path style="fill:#CCD1D9;" d="M357.067,245.093c0-5.902-4.778-10.665-10.665-10.665c-0.983,0-1.937,0.141-2.843,0.391l0,0
	l-191.814,53.278v0.016c-4.497,1.233-7.808,5.355-7.808,10.259c0,5.871,4.778,10.649,10.665,10.649c0.984,0,1.937-0.141,2.842-0.391
	v0.016l191.815-53.294v-0.016C353.757,254.087,357.067,249.981,357.067,245.093z"/>
<path style="fill:#F5F7FA;" d="M314.439,191.815c0-35.321-28.623-63.943-63.929-63.943c-35.32,0-63.943,28.622-63.943,63.943
	c0,18.925,8.229,35.945,21.314,47.642v26.936h85.243v-26.937C306.209,227.76,314.439,210.74,314.439,191.815z"/>
<g>
	<path style="fill:#434A54;" d="M245.171,191.815c0,5.871-4.763,10.649-10.649,10.649s-10.665-4.778-10.665-10.649
		c0-5.902,4.778-10.665,10.665-10.665S245.171,185.912,245.171,191.815z"/>
	<path style="fill:#434A54;" d="M277.149,191.815c0,5.871-4.777,10.649-10.665,10.649c-5.887,0-10.649-4.778-10.649-10.649
		c0-5.902,4.763-10.665,10.649-10.665C272.372,181.149,277.149,185.912,277.149,191.815z"/>
</g>
<g>
	<path style="fill:#E6E9ED;" d="M239.845,255.742c-5.887,0-10.649,4.778-10.649,10.649h21.314
		C250.51,260.521,245.732,255.742,239.845,255.742z"/>
	<path style="fill:#E6E9ED;" d="M261.159,255.742c-5.887,0-10.649,4.778-10.649,10.649h21.3
		C271.81,260.521,267.047,255.742,261.159,255.742z"/>
	<path style="fill:#E6E9ED;" d="M282.474,255.742c-5.887,0-10.664,4.778-10.664,10.649h21.314
		C293.124,260.521,288.361,255.742,282.474,255.742z"/>
	<path style="fill:#E6E9ED;" d="M218.531,255.742c-5.887,0-10.649,4.778-10.649,10.649h21.314
		C229.195,260.521,224.417,255.742,218.531,255.742z"/>
</g>
<g>
</g>
<g>
</g>
<g>
</g>
<g>
</g>
<g>
</g>
<g>
</g>
<g>
</g>
<g>
</g>
<g>
</g>
<g>
</g>
<g>
</g>
<g>
</g>
<g>
</g>
<g>
</g>
<g>
</g>
</svg>
