<?xml version="1.0" encoding="iso-8859-1"?>
<!-- Generator: Adobe Illustrator 19.0.0, SVG Export Plug-In . SVG Version: 6.00 Build 0)  -->
<svg version="1.1" id="Layer_1" xmlns="http://www.w3.org/2000/svg" xmlns:xlink="http://www.w3.org/1999/xlink" x="0px" y="0px"
	 viewBox="0 0 511.672 511.672" style="enable-background:new 0 0 511.672 511.672;" xml:space="preserve">
<path style="fill:#FC6E51;" d="M309.148,137.724V21.315h-106.61v116.409c-56.097,21.455-85.273,75.796-85.273,139.427v135.46v56.417
	v31.979c0,5.887,4.771,10.665,10.657,10.665h255.836c5.887,0,10.65-4.778,10.65-10.665v-31.979v-56.417v-135.46
	C394.408,213.52,365.238,159.179,309.148,137.724z"/>
<path style="fill:#E6E9ED;" d="M117.264,277.15v127.918h277.144V277.15c0-7.229-0.375-14.351-1.125-21.314H118.397
	C117.647,262.8,117.264,269.921,117.264,277.15z"/>
<g style="opacity:0.2;">
	<path style="fill:#FFFFFF;" d="M309.148,137.724V21.315h-21.33v116.409c56.09,21.455,85.291,75.796,85.291,139.427v135.46v56.417
		v31.979c0,5.887-4.779,10.665-10.682,10.665h21.33c5.887,0,10.65-4.778,10.65-10.665v-31.979v-56.417v-135.46
		C394.408,213.52,365.238,159.179,309.148,137.724z"/>
</g>
<path style="fill:#E9573F;" d="M319.799,42.629c0,5.871-4.793,10.665-10.65,10.665H202.538c-5.863,0-10.657-4.794-10.657-10.665
	v-31.98C191.881,4.793,196.675,0,202.538,0h106.611c5.857,0,10.65,4.793,10.65,10.649L319.799,42.629L319.799,42.629z"/>
<g>
	<path style="fill:#ED5564;" d="M210.072,316.672c1.937-1.937,3.131-4.591,3.131-7.542c0-5.887-4.778-10.665-10.665-10.665
		c-2.943,0-5.605,1.202-7.542,3.123l-13.772,13.788l-13.78-13.788c-1.928-1.921-4.599-3.123-7.542-3.123
		c-5.887,0-10.657,4.778-10.657,10.665c0,2.951,1.194,5.605,3.123,7.542l13.78,13.772l-13.78,13.788
		c-1.929,1.921-3.123,4.591-3.123,7.542c0,5.887,4.771,10.649,10.657,10.649c2.943,0,5.614-1.187,7.542-3.123l13.78-13.772
		l13.772,13.772c1.937,1.937,4.599,3.123,7.542,3.123c5.887,0,10.665-4.763,10.665-10.649c0-2.951-1.194-5.621-3.131-7.542
		l-13.78-13.788L210.072,316.672z"/>
	<path style="fill:#ED5564;" d="M284.695,316.672c1.938-1.937,3.123-4.591,3.123-7.542c0-5.887-4.777-10.665-10.648-10.665
		c-2.967,0-5.621,1.202-7.551,3.123l-13.78,13.788l-13.78-13.788c-1.928-1.921-4.591-3.123-7.542-3.123
		c-5.887,0-10.657,4.778-10.657,10.665c0,2.951,1.195,5.605,3.123,7.542l13.78,13.772l-13.78,13.788
		c-1.928,1.921-3.123,4.591-3.123,7.542c0,5.887,4.771,10.649,10.657,10.649c2.951,0,5.614-1.187,7.542-3.123l13.78-13.772
		l13.78,13.772c1.93,1.937,4.584,3.123,7.551,3.123c5.871,0,10.648-4.763,10.648-10.649c0-2.951-1.186-5.621-3.123-7.542
		l-13.779-13.788L284.695,316.672z"/>
	<path style="fill:#ED5564;" d="M359.305,344.232l-13.771-13.788l13.771-13.772c1.936-1.937,3.123-4.591,3.123-7.542
		c0-5.887-4.762-10.665-10.65-10.665c-2.936,0-5.621,1.202-7.541,3.123l-13.789,13.788l-13.771-13.788
		c-1.936-1.921-4.59-3.123-7.527-3.123c-5.902,0-10.68,4.778-10.68,10.665c0,2.951,1.203,5.605,3.139,7.542l13.771,13.772
		l-13.771,13.788c-1.936,1.921-3.139,4.591-3.139,7.542c0,5.887,4.777,10.649,10.68,10.649c2.938,0,5.592-1.187,7.527-3.123
		l13.771-13.772l13.789,13.772c1.92,1.937,4.605,3.123,7.541,3.123c5.889,0,10.65-4.763,10.65-10.649
		C362.428,348.823,361.24,346.153,359.305,344.232z"/>
</g>
<g>
</g>
<g>
</g>
<g>
</g>
<g>
</g>
<g>
</g>
<g>
</g>
<g>
</g>
<g>
</g>
<g>
</g>
<g>
</g>
<g>
</g>
<g>
</g>
<g>
</g>
<g>
</g>
<g>
</g>
</svg>
