<?xml version="1.0" encoding="iso-8859-1"?>
<!-- Generator: Adobe Illustrator 19.0.0, SVG Export Plug-In . SVG Version: 6.00 Build 0)  -->
<svg version="1.1" id="Layer_1" xmlns="http://www.w3.org/2000/svg" xmlns:xlink="http://www.w3.org/1999/xlink" x="0px" y="0px"
	 viewBox="0 0 511.672 511.672" style="enable-background:new 0 0 511.672 511.672;" xml:space="preserve">
<g>
	<path style="fill:#E8A838;" d="M255.836,288.315c-30.566,0-68.675-5.34-113.264-15.88l4.903-20.752
		c42.988,10.166,79.441,15.302,108.36,15.302c27.951,0,63.007-4.809,104.199-14.318l4.793,20.768
		C322.074,283.303,285.396,288.315,255.836,288.315z"/>
	<polygon style="fill:#E8A838;" points="95.407,388.626 76.451,378.882 238.581,63.537 232.632,121.734 	"/>
	<polygon style="fill:#E8A838;" points="416.421,389.172 255.156,75.295 272.513,62.413 435.393,379.429 	"/>
</g>
<rect x="223.856" y="71.719" style="fill:#F6BB42;" width="63.959" height="347.84"/>
<path style="fill:#FFCE54;" d="M255.836,0c-29.435,0-53.302,23.859-53.302,53.31c0,29.418,23.867,53.278,53.302,53.278
	s53.31-23.86,53.31-53.278C309.146,23.859,285.271,0,255.836,0z M255.836,63.959c-5.887,0-10.657-4.778-10.657-10.649
	c0-5.903,4.771-10.681,10.657-10.681c5.886,0,10.657,4.778,10.657,10.681C266.493,59.181,261.723,63.959,255.836,63.959z"/>
<path style="fill:#F6BB42;" d="M479.225,356.334l-9.525,3.373c-68.55,24.25-140.504,36.523-213.871,36.523
	c-73.359,0-145.313-12.273-213.855-36.523l-9.533-3.373L2.139,429.49l10.072,3.981c77.544,30.669,159.515,46.221,243.625,46.221
	c84.103,0,166.082-15.553,243.625-46.236l10.072-3.966L479.225,356.334z"/>
<path style="fill:#424953;" d="M266.493,277.15c0,5.902-4.771,10.665-10.657,10.665s-10.657-4.763-10.657-10.665
	c0-5.887,4.771-10.665,10.657-10.665C261.722,266.485,266.493,271.264,266.493,277.15z"/>
<path style="fill:#FFCE54;" d="M255.836,362.44c-35.329,0-63.959,28.638-63.959,63.959v85.273h127.918v-85.273
	C319.795,391.077,291.157,362.44,255.836,362.44z"/>
<path style="fill:#424953;" d="M255.836,447.713c-11.758,0-21.322-9.572-21.322-21.314c0-11.758,9.564-21.33,21.322-21.33
	c11.75,0,21.314,9.572,21.314,21.33C277.15,438.141,267.586,447.713,255.836,447.713z"/>
<path style="fill:#F6BB42;" d="M255.836,394.419c-17.661,0-31.979,14.304-31.979,31.979c0,17.66,14.318,31.979,31.979,31.979
	c17.66,0,31.979-14.319,31.979-31.979C287.815,408.723,273.496,394.419,255.836,394.419z M255.836,437.048
	c-5.879,0-10.665-4.778-10.665-10.649c0-5.887,4.786-10.665,10.665-10.665s10.657,4.778,10.657,10.665
	C266.493,432.27,261.715,437.048,255.836,437.048z"/>
<g>
	<path style="fill:#424953;" d="M64.006,398.214c1.062,0.327,2.139,0.483,3.193,0.483c4.536,0,8.736-2.904,10.165-7.464l5.816-18.52
		c-6.847-1.904-13.663-3.935-20.44-6.059l-5.715,18.191C55.261,390.469,58.392,396.449,64.006,398.214z"/>
	<path style="fill:#424953;" d="M114.746,412.439c0.742,0.156,1.476,0.234,2.202,0.234c4.935,0,9.369-3.451,10.423-8.479l4.2-19.987
		c-6.972-1.374-13.921-2.857-20.846-4.466l-4.216,20.08C105.3,405.568,108.984,411.221,114.746,412.439z"/>
	<path style="fill:#424953;" d="M166.401,421.886c0.476,0.062,0.944,0.094,1.405,0.094c5.27,0,9.853-3.903,10.556-9.26l2.748-20.799
		c-7.065-0.812-14.116-1.749-21.135-2.795l-2.748,20.799C156.454,415.749,160.561,421.121,166.401,421.886z"/>
	<path style="fill:#424953;" d="M434.3,391.233c1.437,4.56,5.638,7.464,10.165,7.464c1.062,0,2.14-0.156,3.201-0.483
		c5.605-1.765,8.744-7.745,6.98-13.367l-5.715-18.191c-6.777,2.124-13.586,4.154-20.44,6.059L434.3,391.233z"/>
	<path style="fill:#424953;" d="M384.301,404.194c1.046,5.027,5.48,8.479,10.415,8.479c0.733,0,1.468-0.078,2.218-0.234
		c5.746-1.218,9.432-6.87,8.229-12.617l-4.216-20.08c-6.917,1.608-13.882,3.092-20.847,4.466L384.301,404.194z"/>
	<path style="fill:#424953;" d="M333.318,412.72c0.687,5.356,5.277,9.26,10.555,9.26c0.453,0,0.922-0.031,1.406-0.094
		c5.84-0.765,9.931-6.137,9.166-11.961l-2.748-20.799c-7.012,1.046-14.07,1.982-21.128,2.795L333.318,412.72z"/>
</g>
<path style="fill:#FFCE54;" d="M447.713,159.898h-181.22c-11.773,0-21.314,14.319-21.314,31.979s9.541,31.979,21.314,31.979h181.22
	c11.773,0,21.314-14.319,21.314-31.979C469.027,174.216,459.486,159.898,447.713,159.898z"/>
<path style="fill:#424953;" d="M341.109,490.357H170.555c-5.887,0-10.657,4.763-10.657,10.649s4.771,10.665,10.657,10.665H341.11
	c5.887,0,10.665-4.778,10.665-10.665S346.996,490.357,341.109,490.357z"/>
<g>
</g>
<g>
</g>
<g>
</g>
<g>
</g>
<g>
</g>
<g>
</g>
<g>
</g>
<g>
</g>
<g>
</g>
<g>
</g>
<g>
</g>
<g>
</g>
<g>
</g>
<g>
</g>
<g>
</g>
</svg>
