<?xml version="1.0" encoding="iso-8859-1"?>
<!-- Generator: Adobe Illustrator 19.0.0, SVG Export Plug-In . SVG Version: 6.00 Build 0)  -->
<svg version="1.1" id="Layer_1" xmlns="http://www.w3.org/2000/svg" xmlns:xlink="http://www.w3.org/1999/xlink" x="0px" y="0px"
	 viewBox="0 0 511.672 511.672" style="enable-background:new 0 0 511.672 511.672;" xml:space="preserve">
<path style="fill:#FFCE54;" d="M213.176,256.274l0.016,31.542l-42.645,53.294l42.691,103.965h85.148l42.723-103.949l-42.629-53.31
	l1.297-67.894c-56.309-15.724-79.934-125.326,2.107-129.823c91.301-4.997,60.961,139.254,60.961,139.254
	C464.702,210.584,472.541,0,304.18,0c-77.512,0-144.532,54.684-144.532,139.91C159.648,191.877,184.46,230.571,213.176,256.274z"/>
<g>
	<path style="fill:#F6BB42;" d="M200.793,244.047c0.562,0.608,1.14,1.233,1.718,1.858v-0.281
		C201.933,245.093,201.356,244.562,200.793,244.047z"/>
	<path style="fill:#F6BB42;" d="M301.885,90.098c16.256-0.875,28.653,2.967,38.054,9.869c-9.993-13.319-25.374-21.798-48.703-20.518
		c-71.033,3.888-62.866,86.539-22.86,118.861C238.191,161.428,237.723,93.627,301.885,90.098z"/>
	<path style="fill:#F6BB42;" d="M395.731,30.512c50.905,58.446,32.339,161.006-30.559,184.584
		c-1.187,8.792-2.326,14.256-2.326,14.256C440.39,215.081,463.438,89.599,395.731,30.512z"/>
	<path style="fill:#F6BB42;" d="M299.777,219.921c-3.748-1.062-7.34-2.53-10.775-4.341l-1.187,61.57l42.645,53.325l-42.738,103.934
		h-78.856l4.372,10.665h85.148l42.723-103.949l-42.629-53.31L299.777,219.921z"/>
</g>
<path style="fill:#434A54;" d="M255.836,319.795c-105.963,0-191.877,85.898-191.877,191.877h383.754
	C447.713,405.693,361.799,319.795,255.836,319.795z"/>
<g style="opacity:0.2;">
	<path style="fill:#FFFFFF;" d="M255.836,319.795c-3.576,0-7.136,0.094-10.665,0.297c101.014,5.527,181.228,89.177,181.228,191.58
		h21.314C447.713,405.693,361.799,319.795,255.836,319.795z"/>
</g>
<g>
</g>
<g>
</g>
<g>
</g>
<g>
</g>
<g>
</g>
<g>
</g>
<g>
</g>
<g>
</g>
<g>
</g>
<g>
</g>
<g>
</g>
<g>
</g>
<g>
</g>
<g>
</g>
<g>
</g>
</svg>
